<?xml version="1.0" encoding="iso-8859-1"?>
<!-- Generator: Adobe Illustrator 19.0.0, SVG Export Plug-In . SVG Version: 6.00 Build 0)  -->
<svg version="1.1" id="Capa_1" xmlns="http://www.w3.org/2000/svg" xmlns:xlink="http://www.w3.org/1999/xlink" x="0px" y="0px"
	 viewBox="0 0 508 508" style="enable-background:new 0 0 508 508;" xml:space="preserve">
<g>
	<g>
		<path d="M286.8,188.55h-6.2c-0.4-1.1-0.9-2.3-1.4-3.4l4.4-4.4c6.4-6.4,6.4-16.8,0-23.2l-23.2-23.2c-6.4-6.4-16.8-6.4-23.2,0
			l-4.4,4.4c-1.1-0.5-2.3-1-3.4-1.4v-6.2c0-9-7.4-16.4-16.4-16.4h-32.8c-9,0-16.4,7.3-16.4,16.4v6.2c-1.1,0.4-2.3,0.9-3.4,1.4
			l-4.4-4.4c-6.4-6.4-16.8-6.4-23.2,0l-23.2,23.2c-6.4,6.4-6.4,16.8,0,23.2l4.5,4.4c-0.5,1.1-1,2.3-1.4,3.4h-6.2
			c-9,0-16.4,7.3-16.4,16.4v32.8c0,9,7.4,16.4,16.4,16.4h6.2c0.4,1.1,0.9,2.3,1.4,3.4l-4.4,4.4c-6.4,6.4-6.4,16.8,0,23.2l23.2,23.2
			c6.4,6.4,16.8,6.4,23.2,0l4.4-4.4c1.1,0.5,2.3,1,3.4,1.4v6.2c0,9,7.4,16.4,16.4,16.4H213c9,0,16.4-7.3,16.4-16.4v-6.2
			c1.1-0.4,2.3-0.9,3.4-1.4l4.4,4.4c6.4,6.4,16.8,6.4,23.2,0l23.2-23.2c6.4-6.4,6.4-16.8,0-23.2l-4.4-4.4c0.5-1.1,1-2.3,1.4-3.4h6.2
			c9,0,16.4-7.3,16.4-16.4v-32.8C303.2,195.95,295.8,188.55,286.8,188.55z M286.7,237.65h-18l-1.8,5.7c-1.2,4-2.9,8-5,11.9l-2.8,5.3
			l12.7,12.7l-23.2,23.2l-12.6-12.6l-5.3,2.8c-4,2.1-8,3.7-11.9,5l-5.7,1.8v18h-32.8v-18l-5.7-1.8c-4-1.2-8-2.9-11.9-5l-5.3-2.8
			l-12.8,12.8l-23.2-23.2l12.7-12.7l-2.8-5.3c-2.1-4-3.8-8-5-11.9l-1.8-5.7h-18v-32.8h18l1.8-5.7c1.2-4,2.9-8,5-11.9l2.8-5.3
			l-12.7-12.7l23.1-23.5l12.7,12.8l5.3-2.8c4-2.1,8-3.7,11.9-5l5.7-1.8v-18H213v18l5.7,1.8c4,1.2,8,2.9,11.9,5l5.3,2.8l12.7-12.7
			l23.2,23.2l-12.7,12.7l2.8,5.3c2.1,4,3.8,8,5,11.9l1.8,5.7h18V237.65z"/>
	</g>
</g>
<g>
	<g>
		<path d="M196.6,163.85c-31.7,0-57.4,25.7-57.4,57.4s25.8,57.4,57.4,57.4c31.6,0,57.4-25.7,57.4-57.4S228.3,163.85,196.6,163.85z
			 M196.6,262.35c-22.6,0-41-18.4-41-41c0-22.6,18.5-41,41-41c22.6,0,41,18.4,41,41C237.6,243.95,219.2,262.35,196.6,262.35z"/>
	</g>
</g>
<g>
	<g>
		<path d="M344.1,57.35c-18.1,0-32.8,14.7-32.8,32.8c0,18.1,14.8,32.8,32.8,32.8c18.1,0,32.8-14.7,32.8-32.8
			C376.9,72.05,362.2,57.35,344.1,57.35z M344.1,106.55c-9,0-16.4-7.3-16.4-16.4c0-9.1,7.4-16.4,16.4-16.4s16.4,7.3,16.4,16.4
			C360.5,99.25,353.1,106.55,344.1,106.55z"/>
	</g>
</g>
<g>
	<g>
		<path d="M417.9,81.95v-2.7c0-7.5-6.1-13.7-13.7-13.7h-0.8l0.6-0.5c2.6-2.6,4-6,4-9.7s-1.4-7.1-4-9.7l-15.4-15.4
			c-5.2-5.2-14.2-5.2-19.3,0l-0.5,0.5v-0.7c0-7.5-6.1-13.7-13.7-13.7h-21.8c-7.5,0-13.7,6.1-13.7,13.7v0.7l-0.5-0.5
			c-2.6-2.6-6-4-9.6-4c-3.6,0-7.1,1.4-9.7,4l-15.5,15.4c-2.6,2.6-4,6-4,9.7s1.4,7.1,4,9.7l0.5,0.5H284c-7.5,0-13.7,6.1-13.7,13.7
			v2.7H0v344.1h155.7v49.2H90.1v16.4h65.5h196.6h65.5v-16.4h-65.5v-49.2H508V81.95H417.9z M286.8,81.95H298l1.8-5.7
			c0.8-2.5,1.8-5,3.1-7.5l2.8-5.3l-7.9-8l11.6-11.6l8,8l5.3-2.8c2.5-1.3,5-2.4,7.5-3.1l5.7-1.8v-11.3h16.4v11.2l5.7,1.8
			c2.5,0.8,5,1.8,7.5,3.1l5.3,2.8l8-8l11.6,11.6l-8,8l2.8,5.3c1.3,2.5,2.4,5,3.1,7.5l1.8,5.7h11.3v16.4h-11.3l-1.8,5.7
			c-0.8,2.5-1.8,5-3.1,7.5l-2.8,5.3l8,8l-11.6,11.6l-8-8l-5.3,2.8c-2.5,1.3-5,2.4-7.5,3.1l-5.7,1.8v11.3h-16.4v-11.3l-5.7-1.8
			c-2.5-0.8-5-1.8-7.5-3.1l-5.3-2.8l-8,8l-11.6-11.6l8-8l-2.8-5.3c-1.3-2.5-2.4-5-3.1-7.5l-1.8-5.7h-11.3V81.95z M336,475.25h-0.1
			H172.1v-49.2H336V475.25z M491.6,409.75H352.3H155.7H16.4v-49.2h475.2V409.75z M491.6,344.25H16.4V98.35h254v2.7
			c0,7.5,6.1,13.7,13.7,13.7h0.7l-0.5,0.5c-2.6,2.6-4,6-4,9.7c0,3.7,1.4,7.1,4,9.7l15.5,15.5c5.2,5.1,14.2,5.1,19.3,0l0.5-0.5v0.7
			c0,7.5,6.1,13.7,13.7,13.7h21.8c7.5,0,13.7-6.1,13.7-13.7v-0.7l0.5,0.5c5.2,5.2,14.2,5.2,19.3,0l15.4-15.4c2.6-2.6,4-6,4-9.7
			c0-3.6-1.4-7.1-4-9.7l-0.5-0.5h0.7c7.5,0,13.7-6.1,13.7-13.7v-2.7h73.7V344.25z"/>
	</g>
</g>
<g>
	<g>
		<rect x="245.8" y="376.95" width="16.4" height="16.4"/>
	</g>
</g>
<g>
	<g>
		<rect x="278.6" y="376.95" width="16.4" height="16.4"/>
	</g>
</g>
<g>
	<g>
		<rect x="213" y="376.95" width="16.4" height="16.4"/>
	</g>
</g>
<g>
	<g>
		<rect x="41" y="122.95" width="57.4" height="16.4"/>
	</g>
</g>
<g>
	<g>
		<rect x="41" y="155.75" width="32.8" height="16.4"/>
	</g>
</g>
<g>
	<g>
		<rect x="401.5" y="303.25" width="57.4" height="16.4"/>
	</g>
</g>
<g>
	<g>
		<rect x="426.1" y="270.45" width="32.8" height="16.4"/>
	</g>
</g>
<g>
</g>
<g>
</g>
<g>
</g>
<g>
</g>
<g>
</g>
<g>
</g>
<g>
</g>
<g>
</g>
<g>
</g>
<g>
</g>
<g>
</g>
<g>
</g>
<g>
</g>
<g>
</g>
<g>
</g>
</svg>
