<svg height="360pt" viewBox="-12 0 360 360" width="360pt" xmlns="http://www.w3.org/2000/svg" xmlns:xlink="http://www.w3.org/1999/xlink"><linearGradient id="a" gradientTransform="matrix(1 0 0 -1 -87.63274 438)" gradientUnits="userSpaceOnUse" x1="253.535" x2="257.362" y1="13.163" y2="525.984"><stop offset=".322" stop-color="#a163f5"/><stop offset=".466" stop-color="#b074ee"/><stop offset=".752" stop-color="#d8a1dd"/><stop offset=".898" stop-color="#efbad3"/></linearGradient><path d="m336.734375 70.367188c0-1.242188-.234375-2.472657-.6875-3.628907v-36.738281c-.019531-16.5625-13.441406-29.9804688-30-30h-41.335937c-16.558594.0195312-29.980469 13.4375-30 30v162.417969c0 36.589843-29.660157 66.25-66.25 66.25-36.585938 0-66.25-29.660157-66.25-66.25v-69.789063c1.386718-2.78125 1.386718-6.050781 0-8.832031v-39.015625c1.386718-2.78125 1.386718-6.046875 0-8.828125v-35.953125c-.015626-16.5625-13.4375-29.9804688-30-30h-41.328126c-16.5625.0195312-29.984374 13.4375-30 30v36.277344c-1.175781 2.601562-1.175781 5.578125 0 8.179687v39.664063c-1.175781 2.601562-1.175781 5.578125 0 8.179687v70.117188c0 92.40625 75.175782 167.582031 167.585938 167.582031 92.40625 0 167.582031-75.175781 167.582031-167.582031v-70.578125c.917969-2.332032.917969-4.925782 0-7.253906v-40.59375c.449219-1.15625.683594-2.382813.683594-3.625zm-82.023437 10h61.335937v27.84375h-61.335937zm10-60.367188h41.335937c5.519531.007812 9.992187 4.480469 10 10v30.367188h-61.335937v-30.367188c.007812-5.519531 4.480468-9.992188 10-10zm-243.828126 60.367188h61.332032v27.84375h-61.332032zm10-60.367188h41.332032c5.519531.007812 9.992187 4.480469 10 10v30.367188h-61.332032v-30.367188c.003907-5.519531 4.476563-9.992188 10-10zm137.585938 320c-81.378906 0-147.582031-66.199219-147.582031-147.582031v-64.207031h61.332031v64.207031c0 47.632812 38.613281 86.25 86.25 86.25 47.632812 0 86.25-38.617188 86.25-86.25v-64.207031h61.332031v64.207031c-.003906 81.382812-66.210937 147.582031-147.582031 147.582031zm0 0" fill="url(#a)"/></svg>